M48
;Layer_Color=9474304
;FILE_FORMAT=2:4
INCH,TZ
;TYPE=PLATED
T01F00S00C0.0157
T02F00S00C0.0394
;TYPE=NON_PLATED
T03F00S00C0.0354
%
T01
X5709Y5394
X5906Y6929
X6260Y9638
X6181Y10005
X5787Y10056
X5719Y10433
X5315Y10475
X5526Y11140
X5118Y11693
X2402Y11417
X1969Y12008
X5906Y14134
X8189Y13307
X9646Y13963
X9449Y14291
X8937Y10630
X8465Y10197
X7717Y10276
Y9882
X8233Y8391
X8307Y8003
X9016Y8228
X8937Y6614
X9646Y6220
X9543Y5802
X9134Y5197
X9606Y4646
Y4252
X8409Y4000
X11614Y6181
X11732Y8228
X11417Y8583
X11102Y9134
X10787Y9449
X9724Y9528
X12677Y11496
X8937Y15433
X6741Y15315
X6850Y15748
X5315Y16142
X4783Y16437
T02
X2500Y1000
Y2000
Y3000
Y4000
Y5000
Y6000
Y7000
Y8000
Y9000
Y10000
X13000
Y9000
Y8000
Y7000
Y6000
Y5000
Y4000
Y3000
Y2000
Y1000
X13008Y13189
X12008
X11008
Y15236
X12008
X13008
X8874Y17126
X7874
X6874
T03
X6913Y2165
X8646
M30
