G04*
G04 #@! TF.GenerationSoftware,Altium Limited,Altium Designer,23.7.1 (13)*
G04*
G04 Layer_Physical_Order=2*
G04 Layer_Color=8421376*
%FSLAX25Y25*%
%MOIN*%
G70*
G04*
G04 #@! TF.SameCoordinates,94D171D2-8780-4672-B2B7-694C8E849A20*
G04*
G04*
G04 #@! TF.FilePolarity,Positive*
G04*
G01*
G75*
%ADD33R,0.04921X0.03937*%
%ADD41C,0.01575*%
%ADD42C,0.01500*%
%ADD43C,0.03543*%
%ADD44C,0.07874*%
%ADD45R,0.07874X0.07874*%
%ADD46R,0.07874X0.07874*%
%ADD47C,0.02677*%
G36*
X138678Y1204D02*
X16204D01*
X16204Y178796D01*
X138678D01*
X138678Y1204D01*
D02*
G37*
%LPC*%
G36*
X67740Y176103D02*
X66835Y175860D01*
X65709Y175210D01*
X64790Y174291D01*
X64140Y173166D01*
X63897Y172260D01*
X67740D01*
Y176103D01*
D02*
G37*
G36*
X93465Y175984D02*
X84016D01*
Y166535D01*
X93465D01*
Y175984D01*
D02*
G37*
G36*
X69740Y176103D02*
Y171260D01*
Y166417D01*
X70646Y166659D01*
X71772Y167309D01*
X72691Y168228D01*
X73341Y169354D01*
X73591Y170290D01*
X74109D01*
X74338Y169436D01*
X74960Y168359D01*
X75839Y167479D01*
X76917Y166857D01*
X78118Y166535D01*
X79362D01*
X80564Y166857D01*
X81641Y167479D01*
X82521Y168359D01*
X83143Y169436D01*
X83465Y170638D01*
Y171882D01*
X83143Y173083D01*
X82521Y174161D01*
X81641Y175040D01*
X80564Y175662D01*
X79362Y175984D01*
X78118D01*
X76917Y175662D01*
X75839Y175040D01*
X74960Y174161D01*
X74338Y173083D01*
X74109Y172230D01*
X73591D01*
X73341Y173166D01*
X72691Y174291D01*
X71772Y175210D01*
X70646Y175860D01*
X69740Y176103D01*
D02*
G37*
G36*
X67740Y170260D02*
X63897D01*
X64140Y169354D01*
X64790Y168228D01*
X65709Y167309D01*
X66835Y166659D01*
X67740Y166417D01*
Y170260D01*
D02*
G37*
G36*
X53572Y163543D02*
X52727D01*
X51945Y163220D01*
X51347Y162622D01*
X51024Y161840D01*
Y161562D01*
X22880Y133419D01*
X22532Y132898D01*
X22410Y132283D01*
X22410Y132283D01*
Y115574D01*
X22213Y115377D01*
X21890Y114596D01*
Y113750D01*
X22213Y112969D01*
X22812Y112371D01*
X23593Y112047D01*
X24439D01*
X25220Y112371D01*
X25453Y112604D01*
X25953Y112397D01*
Y104724D01*
X20276D01*
Y95276D01*
X27453D01*
X27644Y94814D01*
X27083Y94253D01*
X26824Y94402D01*
X25622Y94724D01*
X24378D01*
X23176Y94402D01*
X22099Y93780D01*
X21219Y92901D01*
X20598Y91824D01*
X20276Y90622D01*
Y89378D01*
X20598Y88176D01*
X21219Y87099D01*
X22099Y86220D01*
X23176Y85598D01*
X24378Y85276D01*
X24720D01*
X25003Y84776D01*
X24972Y84724D01*
X24378D01*
X23176Y84402D01*
X22099Y83780D01*
X21219Y82901D01*
X20598Y81824D01*
X20276Y80622D01*
Y79378D01*
X20598Y78176D01*
X21219Y77099D01*
X22099Y76219D01*
X23176Y75598D01*
X24378Y75276D01*
X25622D01*
X26824Y75598D01*
X27901Y76219D01*
X28780Y77099D01*
X29402Y78176D01*
X29724Y79378D01*
Y80622D01*
X29402Y81824D01*
X28780Y82901D01*
X28433Y83249D01*
X36477Y91293D01*
X36977Y91086D01*
Y84248D01*
X27019Y74290D01*
X26824Y74402D01*
X25622Y74724D01*
X24378D01*
X23176Y74402D01*
X22099Y73781D01*
X21219Y72901D01*
X20598Y71824D01*
X20276Y70622D01*
Y69378D01*
X20598Y68176D01*
X21219Y67099D01*
X22099Y66220D01*
X23176Y65598D01*
X24378Y65276D01*
X25622D01*
X26824Y65598D01*
X27901Y66220D01*
X28780Y67099D01*
X29402Y68176D01*
X29724Y69378D01*
Y70622D01*
X29402Y71824D01*
X29290Y72019D01*
X39233Y81962D01*
X39733Y81755D01*
Y77004D01*
X27019Y64290D01*
X26824Y64402D01*
X25622Y64724D01*
X24378D01*
X23176Y64402D01*
X22099Y63780D01*
X21219Y62901D01*
X20598Y61824D01*
X20276Y60622D01*
Y59378D01*
X20598Y58176D01*
X21219Y57099D01*
X22099Y56220D01*
X23176Y55598D01*
X24378Y55276D01*
X25622D01*
X26567Y55529D01*
X26825Y55080D01*
X26290Y54545D01*
X25622Y54724D01*
X24378D01*
X23176Y54402D01*
X22099Y53781D01*
X21219Y52901D01*
X20598Y51824D01*
X20276Y50622D01*
Y49378D01*
X20598Y48176D01*
X21219Y47099D01*
X22099Y46220D01*
X23176Y45598D01*
X24378Y45276D01*
X25622D01*
X26824Y45598D01*
X27901Y46220D01*
X28780Y47099D01*
X29402Y48176D01*
X29724Y49378D01*
Y50622D01*
X29402Y51824D01*
X28929Y52643D01*
X45532Y69246D01*
X45889Y69153D01*
X46032Y69055D01*
Y63303D01*
X27019Y44290D01*
X26824Y44402D01*
X25622Y44724D01*
X24378D01*
X23176Y44402D01*
X22099Y43780D01*
X21219Y42901D01*
X20598Y41824D01*
X20276Y40622D01*
Y39378D01*
X20598Y38176D01*
X21219Y37099D01*
X22099Y36219D01*
X23176Y35598D01*
X24378Y35276D01*
X25622D01*
X26824Y35598D01*
X27901Y36219D01*
X28780Y37099D01*
X29402Y38176D01*
X29724Y39378D01*
Y40622D01*
X29402Y41824D01*
X29290Y42019D01*
X48682Y61411D01*
X49039Y61319D01*
X49182Y61220D01*
Y56453D01*
X27019Y34290D01*
X26824Y34402D01*
X25622Y34724D01*
X24378D01*
X23176Y34402D01*
X22099Y33781D01*
X21219Y32901D01*
X20598Y31824D01*
X20276Y30622D01*
Y29378D01*
X20598Y28176D01*
X21219Y27099D01*
X22099Y26219D01*
X23176Y25598D01*
X24378Y25276D01*
X25622D01*
X26824Y25598D01*
X27901Y26219D01*
X28780Y27099D01*
X29402Y28176D01*
X29724Y29378D01*
Y30622D01*
X29402Y31824D01*
X29290Y32019D01*
X51816Y54545D01*
X52238Y54417D01*
X52316Y54359D01*
Y49586D01*
X27019Y24290D01*
X26824Y24402D01*
X25622Y24724D01*
X24378D01*
X23176Y24402D01*
X22099Y23780D01*
X21219Y22901D01*
X20598Y21824D01*
X20276Y20622D01*
Y19378D01*
X20598Y18176D01*
X21219Y17099D01*
X22099Y16219D01*
X23176Y15598D01*
X24030Y15369D01*
Y14851D01*
X23094Y14601D01*
X21969Y13951D01*
X21049Y13031D01*
X20399Y11906D01*
X20157Y11000D01*
X25000D01*
X29843D01*
X29601Y11906D01*
X28951Y13031D01*
X28031Y13951D01*
X26906Y14601D01*
X25970Y14851D01*
Y15369D01*
X26824Y15598D01*
X27901Y16219D01*
X28780Y17099D01*
X29402Y18176D01*
X29724Y19378D01*
Y20622D01*
X29402Y21824D01*
X29290Y22019D01*
X55057Y47786D01*
X55057Y47786D01*
X55405Y48307D01*
X55527Y48921D01*
X55527Y48921D01*
Y87037D01*
X62743Y94253D01*
X63021D01*
X63803Y94576D01*
X64401Y95174D01*
X64724Y95956D01*
Y96802D01*
X64401Y97583D01*
X63803Y98181D01*
X63618Y98258D01*
X63520Y98748D01*
X63613Y98841D01*
X63937Y99623D01*
Y100468D01*
X63613Y101250D01*
X63015Y101848D01*
X62234Y102172D01*
X61388D01*
X60607Y101848D01*
X60308Y101549D01*
X59718Y101666D01*
X59676Y101767D01*
X59078Y102365D01*
X58893Y102442D01*
X58796Y102932D01*
X58990Y103126D01*
X59314Y103908D01*
Y104754D01*
X58990Y105535D01*
X58392Y106133D01*
X57611Y106457D01*
X56765D01*
X55984Y106133D01*
X55584Y105733D01*
X55005Y105823D01*
X54952Y105951D01*
X54354Y106549D01*
X53572Y106873D01*
X53498D01*
X53306Y107335D01*
X55244Y109273D01*
X55684D01*
X56465Y109596D01*
X57063Y110194D01*
X57387Y110976D01*
Y111821D01*
X57063Y112603D01*
X56465Y113201D01*
X55684Y113524D01*
X54838D01*
X54057Y113201D01*
X53458Y112603D01*
X53135Y111821D01*
Y111705D01*
X37932Y96502D01*
X37432Y96710D01*
Y100910D01*
X51326Y114803D01*
X51604D01*
X52385Y115127D01*
X52983Y115725D01*
X53307Y116506D01*
Y117352D01*
X52983Y118133D01*
X52385Y118731D01*
X51604Y119055D01*
X50758D01*
X49977Y118731D01*
X49379Y118133D01*
X49055Y117352D01*
Y117074D01*
X34691Y102710D01*
X34343Y102189D01*
X34221Y101575D01*
X34221Y101575D01*
Y93578D01*
X30224Y89582D01*
X29724Y89789D01*
Y90622D01*
X29402Y91824D01*
X29327Y91955D01*
X33025Y95653D01*
X33025Y95653D01*
X33373Y96174D01*
X33495Y96789D01*
X33495Y96789D01*
Y122170D01*
X62870Y151544D01*
X66005D01*
X66201Y151347D01*
X66983Y151024D01*
X67828D01*
X68610Y151347D01*
X69208Y151945D01*
X69532Y152727D01*
Y153572D01*
X69208Y154354D01*
X68707Y154854D01*
X68833Y155310D01*
X68861Y155354D01*
X68927D01*
X69708Y155678D01*
X70306Y156276D01*
X70630Y157057D01*
Y157903D01*
X70306Y158685D01*
X69708Y159283D01*
X68927Y159606D01*
X68081D01*
X67300Y159283D01*
X67103Y159086D01*
X58662D01*
X58661Y159086D01*
X58047Y158964D01*
X57526Y158616D01*
X57526Y158616D01*
X26424Y127513D01*
X26121Y127061D01*
X25844Y127070D01*
X25621Y127144D01*
Y131618D01*
X53294Y159291D01*
X53572D01*
X54354Y159615D01*
X54952Y160213D01*
X55276Y160994D01*
Y161840D01*
X54952Y162622D01*
X54354Y163220D01*
X53572Y163543D01*
D02*
G37*
G36*
X120701Y157087D02*
X119457D01*
X118255Y156765D01*
X117178Y156143D01*
X116298Y155263D01*
X115676Y154186D01*
X115354Y152984D01*
Y151740D01*
X115676Y150539D01*
X116298Y149461D01*
X117178Y148582D01*
X118255Y147960D01*
X119457Y147638D01*
X120701D01*
X121902Y147960D01*
X122980Y148582D01*
X123859Y149461D01*
X124481Y150539D01*
X124803Y151740D01*
Y152984D01*
X124481Y154186D01*
X123859Y155263D01*
X122980Y156143D01*
X121902Y156765D01*
X120701Y157087D01*
D02*
G37*
G36*
X99055Y164991D02*
X99055Y164991D01*
X81102D01*
X80488Y164869D01*
X79967Y164521D01*
X79967Y164521D01*
X73668Y158222D01*
X73320Y157701D01*
X73198Y157087D01*
X73198Y157087D01*
Y117323D01*
X73198Y117323D01*
X73320Y116708D01*
X73668Y116188D01*
X75560Y114296D01*
Y104157D01*
X75363Y103960D01*
X75039Y103179D01*
Y102333D01*
X75363Y101552D01*
X75961Y100954D01*
X76743Y100630D01*
X77588D01*
X78370Y100954D01*
X78968Y101552D01*
X79178Y102059D01*
X79678Y101960D01*
Y91158D01*
X79678Y91158D01*
X79800Y90543D01*
X80148Y90022D01*
X86086Y84084D01*
X85886Y83577D01*
X85213Y83298D01*
X84615Y82700D01*
X84435Y82265D01*
X84291Y81919D01*
X83831Y82015D01*
X83494Y82154D01*
X82648D01*
X81867Y81831D01*
X81632Y81596D01*
X77122D01*
X76872Y81763D01*
X76272Y81883D01*
X70079D01*
X69479Y81763D01*
X68970Y81423D01*
X58964Y71417D01*
X58632D01*
X57851Y71094D01*
X57253Y70496D01*
X56929Y69714D01*
Y68868D01*
X57253Y68087D01*
X57851Y67489D01*
X58632Y67165D01*
X59478D01*
X60259Y67489D01*
X60857Y68087D01*
X61181Y68868D01*
Y69200D01*
X70728Y78747D01*
X75709D01*
X75959Y78580D01*
X76559Y78461D01*
X81632D01*
X81867Y78226D01*
X82648Y77902D01*
X83494D01*
X84275Y78226D01*
X84873Y78824D01*
X85054Y79260D01*
X85197Y79606D01*
X85657Y79510D01*
X85994Y79370D01*
X86273D01*
X90890Y74752D01*
Y68281D01*
X90390Y68020D01*
X89793Y68268D01*
X88947D01*
X88166Y67944D01*
X87568Y67346D01*
X87244Y66565D01*
Y66286D01*
X85479Y64521D01*
X85131Y64000D01*
X85009Y63386D01*
X85009Y63386D01*
Y48819D01*
X85009Y48819D01*
X85131Y48204D01*
X85479Y47684D01*
X91778Y41384D01*
X91778Y41384D01*
X92299Y41036D01*
X92913Y40914D01*
X92913Y40914D01*
X94662D01*
X94859Y40717D01*
X95640Y40394D01*
X96486D01*
X97267Y40717D01*
X97865Y41315D01*
X98189Y42097D01*
Y42943D01*
X97865Y43724D01*
X97267Y44322D01*
X96486Y44646D01*
X95640D01*
X94859Y44322D01*
X94662Y44125D01*
X93578D01*
X88220Y49484D01*
Y62721D01*
X89515Y64016D01*
X89793D01*
X90390Y64263D01*
X90890Y64002D01*
Y60955D01*
X90890Y60955D01*
X91013Y60340D01*
X91361Y59820D01*
X93300Y57880D01*
Y57602D01*
X93624Y56820D01*
X94222Y56222D01*
X95003Y55899D01*
X95849D01*
X96631Y56222D01*
X97229Y56820D01*
X97552Y57602D01*
Y58448D01*
X97229Y59229D01*
X96631Y59827D01*
X95849Y60151D01*
X95571D01*
X94102Y61620D01*
Y75417D01*
X94102Y75417D01*
X93980Y76032D01*
X93631Y76553D01*
X91768Y78416D01*
X91997Y78894D01*
X92740Y79202D01*
X93338Y79800D01*
X93661Y80581D01*
Y81427D01*
X93338Y82208D01*
X92740Y82806D01*
X91958Y83130D01*
X91582D01*
X82889Y91823D01*
Y96581D01*
X83389Y96733D01*
X83609Y96404D01*
X100757Y79256D01*
Y47638D01*
X100757Y47638D01*
X100879Y47023D01*
X101227Y46502D01*
X125710Y22019D01*
X125598Y21824D01*
X125276Y20622D01*
Y19378D01*
X125598Y18176D01*
X126219Y17099D01*
X127099Y16219D01*
X128176Y15598D01*
X129030Y15369D01*
Y14851D01*
X128094Y14601D01*
X126969Y13951D01*
X126049Y13031D01*
X125399Y11906D01*
X125157Y11000D01*
X130000D01*
X134843D01*
X134601Y11906D01*
X133951Y13031D01*
X133031Y13951D01*
X131906Y14601D01*
X130970Y14851D01*
Y15369D01*
X131824Y15598D01*
X132901Y16219D01*
X133781Y17099D01*
X134402Y18176D01*
X134724Y19378D01*
Y20622D01*
X134402Y21824D01*
X133781Y22901D01*
X132901Y23780D01*
X131824Y24402D01*
X130622Y24724D01*
X129378D01*
X128176Y24402D01*
X127981Y24290D01*
X103968Y48303D01*
Y53054D01*
X104468Y53261D01*
X125710Y32019D01*
X125598Y31824D01*
X125276Y30622D01*
Y29378D01*
X125598Y28176D01*
X126219Y27099D01*
X127099Y26219D01*
X128176Y25598D01*
X129378Y25276D01*
X130622D01*
X131824Y25598D01*
X132901Y26219D01*
X133781Y27099D01*
X134402Y28176D01*
X134724Y29378D01*
Y30622D01*
X134402Y31824D01*
X133781Y32901D01*
X132901Y33781D01*
X131824Y34402D01*
X130622Y34724D01*
X129378D01*
X128176Y34402D01*
X127981Y34290D01*
X106724Y55547D01*
Y60298D01*
X107224Y60505D01*
X125710Y42019D01*
X125598Y41824D01*
X125276Y40622D01*
Y39378D01*
X125598Y38176D01*
X126219Y37099D01*
X127099Y36219D01*
X128176Y35598D01*
X129378Y35276D01*
X130622D01*
X131824Y35598D01*
X132901Y36219D01*
X133781Y37099D01*
X134402Y38176D01*
X134724Y39378D01*
Y40622D01*
X134402Y41824D01*
X133781Y42901D01*
X132901Y43780D01*
X131824Y44402D01*
X130622Y44724D01*
X129378D01*
X128176Y44402D01*
X127981Y44290D01*
X109480Y62791D01*
Y72792D01*
X109623Y72891D01*
X109980Y72983D01*
X118079Y64884D01*
Y60315D01*
X118079Y60315D01*
X118202Y59701D01*
X118550Y59180D01*
X125710Y52019D01*
X125598Y51824D01*
X125276Y50622D01*
Y49378D01*
X125598Y48176D01*
X126219Y47099D01*
X127099Y46220D01*
X128176Y45598D01*
X129378Y45276D01*
X130622D01*
X131824Y45598D01*
X132901Y46220D01*
X133781Y47099D01*
X134402Y48176D01*
X134724Y49378D01*
Y50622D01*
X134402Y51824D01*
X133781Y52901D01*
X132901Y53781D01*
X131824Y54402D01*
X130622Y54724D01*
X129378D01*
X128176Y54402D01*
X127981Y54290D01*
X121291Y60980D01*
Y65549D01*
X121291Y65549D01*
X121245Y65777D01*
X121706Y66023D01*
X125710Y62019D01*
X125598Y61824D01*
X125276Y60622D01*
Y59378D01*
X125598Y58176D01*
X126219Y57099D01*
X127099Y56220D01*
X128176Y55598D01*
X129378Y55276D01*
X130622D01*
X131824Y55598D01*
X132901Y56220D01*
X133781Y57099D01*
X134402Y58176D01*
X134724Y59378D01*
Y60622D01*
X134402Y61824D01*
X133781Y62901D01*
X132901Y63780D01*
X131824Y64402D01*
X130622Y64724D01*
X129378D01*
X128176Y64402D01*
X127981Y64290D01*
X115779Y76492D01*
Y80168D01*
X116279Y80415D01*
X116900Y80158D01*
X117375D01*
X125638Y71894D01*
X125598Y71824D01*
X125276Y70622D01*
Y69378D01*
X125598Y68176D01*
X126219Y67099D01*
X127099Y66220D01*
X128176Y65598D01*
X129378Y65276D01*
X130622D01*
X131824Y65598D01*
X132901Y66220D01*
X133781Y67099D01*
X134402Y68176D01*
X134724Y69378D01*
Y70622D01*
X134402Y71824D01*
X133781Y72901D01*
X132901Y73781D01*
X131824Y74402D01*
X130622Y74724D01*
X129378D01*
X128176Y74402D01*
X127856Y74218D01*
X119449Y82625D01*
Y82706D01*
X119125Y83488D01*
X118527Y84086D01*
X117746Y84409D01*
X116900D01*
X116279Y84152D01*
X116234Y84174D01*
X115975Y84623D01*
X116299Y85404D01*
Y86250D01*
X115975Y87031D01*
X115377Y87629D01*
X114596Y87953D01*
X113750D01*
X113129Y87695D01*
X112629Y87943D01*
Y89938D01*
X112826Y90134D01*
X113150Y90916D01*
Y91353D01*
X113650Y91560D01*
X125140Y80070D01*
X125276Y79979D01*
Y79378D01*
X125598Y78176D01*
X126219Y77099D01*
X127099Y76219D01*
X128176Y75598D01*
X129378Y75276D01*
X130622D01*
X131824Y75598D01*
X132901Y76219D01*
X133781Y77099D01*
X134402Y78176D01*
X134724Y79378D01*
Y80622D01*
X134402Y81824D01*
X133781Y82901D01*
X132901Y83780D01*
X131824Y84402D01*
X130622Y84724D01*
X129378D01*
X128176Y84402D01*
X127099Y83780D01*
X126535Y83216D01*
X112578Y97173D01*
Y99836D01*
X112489Y100281D01*
X112950Y100527D01*
X123859Y89618D01*
X123859Y89618D01*
X124380Y89270D01*
X124995Y89148D01*
X124995Y89148D01*
X125337D01*
X125598Y88176D01*
X126219Y87099D01*
X127099Y86220D01*
X128176Y85598D01*
X129378Y85276D01*
X130622D01*
X131824Y85598D01*
X132901Y86220D01*
X133781Y87099D01*
X134402Y88176D01*
X134724Y89378D01*
Y90622D01*
X134402Y91824D01*
X133781Y92901D01*
X132901Y93780D01*
X131824Y94402D01*
X130622Y94724D01*
X129378D01*
X128176Y94402D01*
X127099Y93780D01*
X126219Y92901D01*
X126054Y92614D01*
X125466Y92553D01*
X101188Y116830D01*
Y140975D01*
X101188Y140975D01*
X101066Y141589D01*
X100718Y142110D01*
X100718Y142111D01*
X98862Y143966D01*
X98342Y144314D01*
X97727Y144436D01*
X97727Y144436D01*
X95972D01*
X95692Y144716D01*
X94911Y145039D01*
X94065D01*
X93284Y144716D01*
X92686Y144118D01*
X92362Y143336D01*
Y142490D01*
X92686Y141709D01*
X93284Y141111D01*
X94065Y140787D01*
X94185D01*
X94463Y140372D01*
X94331Y140053D01*
Y139208D01*
X94654Y138426D01*
X94851Y138230D01*
Y135606D01*
X94534Y135289D01*
X94186Y134768D01*
X94064Y134153D01*
X94064Y134153D01*
Y115607D01*
X93564Y115400D01*
X83495Y125468D01*
Y131670D01*
X83692Y131867D01*
X84016Y132648D01*
Y133494D01*
X83692Y134275D01*
X83094Y134873D01*
X82313Y135197D01*
X81467D01*
X80686Y134873D01*
X80452Y134640D01*
X79952Y134847D01*
Y151303D01*
X85704Y157056D01*
X94217D01*
X108473Y142799D01*
Y136351D01*
X108255Y136292D01*
X107178Y135670D01*
X106436Y134929D01*
X105936Y135124D01*
Y143701D01*
X105814Y144315D01*
X105466Y144836D01*
X105466Y144836D01*
X94836Y155466D01*
X94315Y155814D01*
X93701Y155936D01*
X93701Y155936D01*
X90771D01*
X90574Y156133D01*
X89793Y156457D01*
X88947D01*
X88166Y156133D01*
X87568Y155535D01*
X87244Y154754D01*
Y153908D01*
X87568Y153126D01*
X88166Y152528D01*
X88947Y152205D01*
X89793D01*
X90574Y152528D01*
X90771Y152725D01*
X93036D01*
X102725Y143036D01*
Y125669D01*
X102725Y125669D01*
X102847Y125055D01*
X103195Y124534D01*
X125276Y102454D01*
Y95276D01*
X134724D01*
Y104724D01*
X127546D01*
X105936Y126334D01*
Y128656D01*
X106436Y128851D01*
X107178Y128109D01*
X108255Y127487D01*
X109457Y127165D01*
X110701D01*
X111902Y127487D01*
X112980Y128109D01*
X113859Y128989D01*
X114481Y130066D01*
X114803Y131268D01*
Y132512D01*
X114481Y133713D01*
X113859Y134791D01*
X112980Y135670D01*
X111902Y136292D01*
X111684Y136351D01*
Y143465D01*
X111684Y143465D01*
X111562Y144079D01*
X111214Y144600D01*
X111214Y144600D01*
X108415Y147399D01*
X108674Y147848D01*
X109457Y147638D01*
X110701D01*
X111902Y147960D01*
X112980Y148582D01*
X113859Y149461D01*
X114481Y150539D01*
X114803Y151740D01*
Y152984D01*
X114481Y154186D01*
X113859Y155263D01*
X112980Y156143D01*
X111902Y156765D01*
X110701Y157087D01*
X109457D01*
X108255Y156765D01*
X108060Y156652D01*
X100190Y164521D01*
X99670Y164869D01*
X99568Y164890D01*
X99055Y164991D01*
D02*
G37*
G36*
X120701Y136614D02*
X119457D01*
X118255Y136292D01*
X117178Y135670D01*
X116298Y134791D01*
X115676Y133713D01*
X115354Y132512D01*
Y131268D01*
X115676Y130066D01*
X116298Y128989D01*
X117178Y128109D01*
X118255Y127487D01*
X119457Y127165D01*
X120701D01*
X121902Y127487D01*
X122980Y128109D01*
X123859Y128989D01*
X124481Y130066D01*
X124803Y131268D01*
Y132512D01*
X124481Y133713D01*
X123859Y134791D01*
X122980Y135670D01*
X121902Y136292D01*
X120701Y136614D01*
D02*
G37*
G36*
X134803Y157087D02*
X125354D01*
Y147638D01*
X128473D01*
Y141991D01*
X128473Y141991D01*
X128595Y141376D01*
X128943Y140856D01*
X132723Y137076D01*
X132531Y136614D01*
X125354D01*
Y127165D01*
X133985D01*
Y124445D01*
X126627Y117087D01*
X126349D01*
X125567Y116763D01*
X124969Y116165D01*
X124646Y115384D01*
Y114538D01*
X124969Y113756D01*
X125567Y113158D01*
X126349Y112835D01*
X127194D01*
X127976Y113158D01*
X128574Y113756D01*
X128898Y114538D01*
Y114816D01*
X136726Y122644D01*
X136726Y122644D01*
X137074Y123165D01*
X137196Y123779D01*
X137196Y123780D01*
Y136479D01*
X137196Y136479D01*
X137074Y137093D01*
X136726Y137614D01*
X136726Y137615D01*
X131684Y142656D01*
Y147638D01*
X134803D01*
Y157087D01*
D02*
G37*
G36*
X86794Y24213D02*
X86120D01*
X85469Y24038D01*
X84885Y23701D01*
X84409Y23225D01*
X84072Y22641D01*
X83898Y21991D01*
Y21317D01*
X84072Y20666D01*
X84409Y20082D01*
X84885Y19606D01*
X85469Y19269D01*
X86120Y19094D01*
X86794D01*
X87444Y19269D01*
X88028Y19606D01*
X88504Y20082D01*
X88841Y20666D01*
X89016Y21317D01*
Y21991D01*
X88841Y22641D01*
X88504Y23225D01*
X88028Y23701D01*
X87444Y24038D01*
X86794Y24213D01*
D02*
G37*
G36*
X69471D02*
X68797D01*
X68146Y24038D01*
X67563Y23701D01*
X67086Y23225D01*
X66749Y22641D01*
X66575Y21991D01*
Y21317D01*
X66749Y20666D01*
X67086Y20082D01*
X67563Y19606D01*
X68146Y19269D01*
X68797Y19094D01*
X69471D01*
X70122Y19269D01*
X70705Y19606D01*
X71182Y20082D01*
X71518Y20666D01*
X71693Y21317D01*
Y21991D01*
X71518Y22641D01*
X71182Y23225D01*
X70705Y23701D01*
X70122Y24038D01*
X69471Y24213D01*
D02*
G37*
G36*
X134843Y9000D02*
X131000D01*
Y5157D01*
X131906Y5399D01*
X133031Y6049D01*
X133951Y6969D01*
X134601Y8094D01*
X134843Y9000D01*
D02*
G37*
G36*
X29843D02*
X26000D01*
Y5157D01*
X26906Y5399D01*
X28031Y6049D01*
X28951Y6969D01*
X29601Y8094D01*
X29843Y9000D01*
D02*
G37*
G36*
X129000D02*
X125157D01*
X125399Y8094D01*
X126049Y6969D01*
X126969Y6049D01*
X128094Y5399D01*
X129000Y5157D01*
Y9000D01*
D02*
G37*
G36*
X24000D02*
X20157D01*
X20399Y8094D01*
X21049Y6969D01*
X21969Y6049D01*
X23094Y5399D01*
X24000Y5157D01*
Y9000D01*
D02*
G37*
%LPD*%
D33*
X95276Y108268D02*
D03*
Y100394D02*
D03*
D41*
X91437Y81004D02*
X91535D01*
X81283Y91158D02*
X91437Y81004D01*
X81283Y91158D02*
Y119504D01*
X86417Y81496D02*
X92496Y75417D01*
Y60955D02*
Y75417D01*
Y60955D02*
X95426Y58025D01*
X86614Y48819D02*
Y63386D01*
X89370Y66142D01*
X96457Y134941D02*
Y139631D01*
X97727Y142831D02*
X99583Y140975D01*
Y116165D02*
X124995Y90753D01*
X99583Y116165D02*
Y140975D01*
X38583Y94882D02*
X55099Y111398D01*
X55261D01*
X62205Y153150D02*
X67405D01*
X31890Y122835D02*
X62205Y153150D01*
X27559Y126378D02*
X58661Y157480D01*
X68504D01*
X94488Y142913D02*
X94571Y142831D01*
X97727D01*
X95669Y134153D02*
X96457Y134941D01*
X95669Y115139D02*
Y134153D01*
X119685Y60315D02*
X130000Y50000D01*
X111024Y74210D02*
X119685Y65549D01*
Y60315D02*
Y65549D01*
X84744Y97539D02*
Y101870D01*
X84646Y101969D02*
X84744Y101870D01*
Y97539D02*
X102362Y79921D01*
X81890Y124803D02*
Y133071D01*
X95017Y108526D02*
Y111676D01*
Y108526D02*
X95276Y108268D01*
X81890Y124803D02*
X95017Y111676D01*
X124995Y90753D02*
X129247D01*
X110972Y96508D02*
Y99836D01*
X95669Y115139D02*
X110972Y99836D01*
X126275Y81205D02*
X128795D01*
X110972Y96508D02*
X126275Y81205D01*
X128795D02*
X130000Y80000D01*
X129247Y90753D02*
X130000Y90000D01*
X77165Y102756D02*
Y114961D01*
X74803Y117323D02*
X77165Y114961D01*
X74803Y117323D02*
Y157087D01*
X81102Y163386D02*
X99055D01*
X74803Y157087D02*
X81102Y163386D01*
X99055D02*
X110079Y152362D01*
X78347Y151969D02*
X85039Y158661D01*
X94882D02*
X110079Y143465D01*
X89370Y154331D02*
X93701D01*
X85039Y158661D02*
X94882D01*
X78347Y122441D02*
Y151969D01*
Y122441D02*
X81283Y119504D01*
X104331Y125669D02*
Y143701D01*
X93701Y154331D02*
X104331Y143701D01*
Y125669D02*
X130000Y100000D01*
X110079Y131890D02*
Y143465D01*
X95276Y100394D02*
X95358Y100312D01*
Y96949D02*
Y100312D01*
X97031Y95276D02*
X97244D01*
X95358Y96949D02*
X97031Y95276D01*
X89370Y97638D02*
X105118Y81890D01*
Y54882D02*
Y81890D01*
X89370Y97638D02*
Y106299D01*
X102362Y47638D02*
Y79921D01*
X111024Y74210D02*
Y91339D01*
X102362Y47638D02*
X130000Y20000D01*
X105118Y54882D02*
X130000Y30000D01*
X107874Y62126D02*
X130000Y40000D01*
X107874Y62126D02*
Y94488D01*
X114173Y75827D02*
Y85827D01*
Y75827D02*
X130000Y60000D01*
Y61705D01*
X117323Y82284D02*
X117520D01*
X129803Y70000D01*
X130000D01*
X53921Y48921D02*
Y87702D01*
X62598Y96379D01*
X25000Y20000D02*
X53921Y48921D01*
X25000Y30000D02*
X50787Y55787D01*
Y89022D01*
X61811Y100046D01*
X25000Y40000D02*
X47638Y62638D01*
Y90326D02*
X57874Y100563D01*
X47638Y62638D02*
Y90326D01*
X25000Y50984D02*
X44488Y70472D01*
Y91631D02*
X57188Y104331D01*
X44488Y70472D02*
Y91631D01*
X41339Y92936D02*
X53150Y104747D01*
X25503Y60503D02*
X41339Y76339D01*
Y92936D01*
X25101Y90000D02*
X31890Y96789D01*
Y122835D01*
X25000Y100000D02*
X27559Y102559D01*
Y126378D01*
X24016Y114173D02*
Y132283D01*
X53150Y161417D01*
X25000Y60000D02*
X25503Y60503D01*
X25000Y70000D02*
X38583Y83583D01*
Y94882D01*
X26836Y83923D02*
X35827Y92913D01*
Y101575D01*
X51181Y116929D01*
X25000Y81705D02*
X26836Y83541D01*
X25000Y80000D02*
Y81705D01*
X26836Y83541D02*
Y83923D01*
X25000Y50000D02*
Y50984D01*
Y90000D02*
X25101D01*
X135591Y123779D02*
Y136479D01*
X130079Y141991D02*
X135591Y136479D01*
X126772Y114961D02*
X135591Y123779D01*
X130079Y141991D02*
Y152362D01*
X92913Y42520D02*
X96063D01*
X86614Y48819D02*
X92913Y42520D01*
D42*
X76272Y80315D02*
X76559Y80028D01*
X83071D01*
X70079Y80315D02*
X76272D01*
X59055Y69291D02*
X70079Y80315D01*
X77015Y171260D02*
X78740D01*
D43*
X69134Y21654D02*
D03*
X86457D02*
D03*
D44*
X130000Y10000D02*
D03*
Y20000D02*
D03*
Y30000D02*
D03*
Y40000D02*
D03*
Y50000D02*
D03*
Y60000D02*
D03*
Y70000D02*
D03*
Y80000D02*
D03*
Y90000D02*
D03*
X25000D02*
D03*
Y80000D02*
D03*
Y70000D02*
D03*
Y60000D02*
D03*
Y50000D02*
D03*
Y40000D02*
D03*
Y30000D02*
D03*
Y20000D02*
D03*
Y10000D02*
D03*
X120079Y131890D02*
D03*
X110079D02*
D03*
X120079Y152362D02*
D03*
X110079D02*
D03*
X78740Y171260D02*
D03*
X68740D02*
D03*
D45*
X130000Y100000D02*
D03*
X25000D02*
D03*
D46*
X130079Y131890D02*
D03*
Y152362D02*
D03*
X88740Y171260D02*
D03*
D47*
X91535Y81004D02*
D03*
X86417Y81496D02*
D03*
X83071Y80028D02*
D03*
X89370Y66142D02*
D03*
X77165Y98819D02*
D03*
X96457Y139631D02*
D03*
X55261Y111398D02*
D03*
X57087Y53937D02*
D03*
X95426Y58025D02*
D03*
X67405Y153150D02*
D03*
X68504Y157480D02*
D03*
X94488Y142913D02*
D03*
X59055Y69291D02*
D03*
X84646Y101969D02*
D03*
X89370Y154331D02*
D03*
X77165Y102756D02*
D03*
X81890Y133071D02*
D03*
X97244Y95276D02*
D03*
X89370Y106299D02*
D03*
X116142Y61811D02*
D03*
X117323Y82284D02*
D03*
X107874Y94488D02*
D03*
X114173Y85827D02*
D03*
X111024Y91339D02*
D03*
X24016Y114173D02*
D03*
X19685Y120079D02*
D03*
X59055Y141339D02*
D03*
X53150Y161417D02*
D03*
X51181Y116929D02*
D03*
X126772Y114961D02*
D03*
X96457Y62205D02*
D03*
X96063Y46457D02*
D03*
X91339Y51968D02*
D03*
X62598Y96379D02*
D03*
X61811Y100046D02*
D03*
X57874Y100563D02*
D03*
X57188Y104331D02*
D03*
X53150Y104747D02*
D03*
X96063Y42520D02*
D03*
X84095Y40000D02*
D03*
X47835Y164370D02*
D03*
M02*
