G04*
G04 #@! TF.GenerationSoftware,Altium Limited,Altium Designer,23.7.1 (13)*
G04*
G04 Layer_Color=16711935*
%FSLAX25Y25*%
%MOIN*%
G70*
G04*
G04 #@! TF.SameCoordinates,4F80AF1B-0967-4665-A27F-6CB959538459*
G04*
G04*
G04 #@! TF.FilePolarity,Negative*
G04*
G01*
G75*
%ADD15R,0.05315X0.04331*%
%ADD23C,0.04343*%
%ADD24C,0.03937*%
%ADD25C,0.08268*%
%ADD26R,0.08268X0.08268*%
%ADD27R,0.08268X0.08268*%
%ADD28C,0.03071*%
D15*
X95276Y108268D02*
D03*
Y100394D02*
D03*
D23*
X69134Y21654D02*
D03*
D24*
X86457D02*
D03*
D25*
X130000Y10000D02*
D03*
Y20000D02*
D03*
Y30000D02*
D03*
Y40000D02*
D03*
Y50000D02*
D03*
Y60000D02*
D03*
Y70000D02*
D03*
Y80000D02*
D03*
Y90000D02*
D03*
X25000D02*
D03*
Y80000D02*
D03*
Y70000D02*
D03*
Y60000D02*
D03*
Y50000D02*
D03*
Y40000D02*
D03*
Y30000D02*
D03*
Y20000D02*
D03*
Y10000D02*
D03*
X120079Y131890D02*
D03*
X110079D02*
D03*
X120079Y152362D02*
D03*
X110079D02*
D03*
X78740Y171260D02*
D03*
X68740D02*
D03*
D26*
X130000Y100000D02*
D03*
X25000D02*
D03*
D27*
X130079Y131890D02*
D03*
Y152362D02*
D03*
X88740Y171260D02*
D03*
D28*
X89370Y66142D02*
D03*
X77165Y98819D02*
D03*
X96457Y139631D02*
D03*
X55261Y111398D02*
D03*
X83071Y80028D02*
D03*
X57087Y53937D02*
D03*
X95426Y58025D02*
D03*
X67405Y153150D02*
D03*
X68504Y157480D02*
D03*
X94488Y142913D02*
D03*
X59055Y69291D02*
D03*
X90158Y82284D02*
D03*
X84646Y101969D02*
D03*
X89370Y154331D02*
D03*
X77165Y102756D02*
D03*
X81890Y133071D02*
D03*
X97244Y95276D02*
D03*
X89370Y106299D02*
D03*
X116142Y61811D02*
D03*
X117323Y82284D02*
D03*
X107874Y94488D02*
D03*
X114173Y85827D02*
D03*
X111024Y91339D02*
D03*
X24016Y114173D02*
D03*
X19685Y120079D02*
D03*
X59055Y141339D02*
D03*
X53150Y161417D02*
D03*
X51181Y116929D02*
D03*
X126772Y114961D02*
D03*
X96457Y62205D02*
D03*
X96063Y46457D02*
D03*
X91339Y51968D02*
D03*
X82333Y83908D02*
D03*
X62598Y96379D02*
D03*
X61811Y100046D02*
D03*
X57874Y100563D02*
D03*
X57188Y104331D02*
D03*
X53150Y104747D02*
D03*
X96063Y42520D02*
D03*
X84095Y40000D02*
D03*
X47835Y164370D02*
D03*
M02*
