G04*
G04 #@! TF.GenerationSoftware,Altium Limited,Altium Designer,23.7.1 (13)*
G04*
G04 Layer_Color=8388736*
%FSLAX25Y25*%
%MOIN*%
G70*
G04*
G04 #@! TF.SameCoordinates,3E470AC7-ECF9-48F6-9F6D-68BDDA74D969*
G04*
G04*
G04 #@! TF.FilePolarity,Negative*
G04*
G01*
G75*
%ADD12R,0.08268X0.10236*%
%ADD13R,0.02362X0.10236*%
%ADD14R,0.01968X0.09252*%
%ADD15R,0.05315X0.04331*%
G04:AMPARAMS|DCode=16|XSize=43.31mil|YSize=53.15mil|CornerRadius=0mil|HoleSize=0mil|Usage=FLASHONLY|Rotation=135.000|XOffset=0mil|YOffset=0mil|HoleType=Round|Shape=Rectangle|*
%AMROTATEDRECTD16*
4,1,4,0.03410,0.00348,-0.00348,-0.03410,-0.03410,-0.00348,0.00348,0.03410,0.03410,0.00348,0.0*
%
%ADD16ROTATEDRECTD16*%

G04:AMPARAMS|DCode=17|XSize=25.59mil|YSize=66.93mil|CornerRadius=0mil|HoleSize=0mil|Usage=FLASHONLY|Rotation=315.000|XOffset=0mil|YOffset=0mil|HoleType=Round|Shape=Rectangle|*
%AMROTATEDRECTD17*
4,1,4,-0.03271,-0.01462,0.01462,0.03271,0.03271,0.01462,-0.01462,-0.03271,-0.03271,-0.01462,0.0*
%
%ADD17ROTATEDRECTD17*%

G04:AMPARAMS|DCode=18|XSize=25.59mil|YSize=66.93mil|CornerRadius=0mil|HoleSize=0mil|Usage=FLASHONLY|Rotation=45.000|XOffset=0mil|YOffset=0mil|HoleType=Round|Shape=Rectangle|*
%AMROTATEDRECTD18*
4,1,4,0.01462,-0.03271,-0.03271,0.01462,-0.01462,0.03271,0.03271,-0.01462,0.01462,-0.03271,0.0*
%
%ADD18ROTATEDRECTD18*%

G04:AMPARAMS|DCode=19|XSize=74.8mil|YSize=51.18mil|CornerRadius=0mil|HoleSize=0mil|Usage=FLASHONLY|Rotation=225.000|XOffset=0mil|YOffset=0mil|HoleType=Round|Shape=Rectangle|*
%AMROTATEDRECTD19*
4,1,4,0.00835,0.04454,0.04454,0.00835,-0.00835,-0.04454,-0.04454,-0.00835,0.00835,0.04454,0.0*
%
%ADD19ROTATEDRECTD19*%

G04:AMPARAMS|DCode=20|XSize=43.31mil|YSize=53.15mil|CornerRadius=0mil|HoleSize=0mil|Usage=FLASHONLY|Rotation=45.000|XOffset=0mil|YOffset=0mil|HoleType=Round|Shape=Rectangle|*
%AMROTATEDRECTD20*
4,1,4,0.00348,-0.03410,-0.03410,0.00348,-0.00348,0.03410,0.03410,-0.00348,0.00348,-0.03410,0.0*
%
%ADD20ROTATEDRECTD20*%

%ADD21R,0.04331X0.05315*%
%ADD22R,0.04724X0.02756*%
%ADD23C,0.04343*%
%ADD24C,0.03937*%
%ADD25C,0.08268*%
%ADD26R,0.08268X0.08268*%
%ADD27R,0.08268X0.08268*%
%ADD28C,0.03071*%
D12*
X96929Y31339D02*
D03*
X58661D02*
D03*
X96929Y9764D02*
D03*
X58661D02*
D03*
D13*
X84095Y32362D02*
D03*
X80945D02*
D03*
X77795D02*
D03*
X74646D02*
D03*
X71496D02*
D03*
D14*
X67333Y73327D02*
D03*
X69833D02*
D03*
X72333D02*
D03*
X74833D02*
D03*
X77333D02*
D03*
X79833D02*
D03*
X82333D02*
D03*
X84833D02*
D03*
X87333D02*
D03*
X89833D02*
D03*
X67333Y92028D02*
D03*
X69833D02*
D03*
X72333D02*
D03*
X74833D02*
D03*
X77333D02*
D03*
X79833D02*
D03*
X82333D02*
D03*
X84833D02*
D03*
X87333D02*
D03*
X89833D02*
D03*
D15*
X102362Y104331D02*
D03*
Y96457D02*
D03*
Y78740D02*
D03*
Y86614D02*
D03*
X33465Y164370D02*
D03*
Y172244D02*
D03*
X42323Y164370D02*
D03*
Y172244D02*
D03*
X69882Y46260D02*
D03*
Y54134D02*
D03*
X77756Y46260D02*
D03*
Y54134D02*
D03*
X85630D02*
D03*
Y46260D02*
D03*
X62008Y54134D02*
D03*
Y46260D02*
D03*
X54134Y84646D02*
D03*
Y92520D02*
D03*
X43307D02*
D03*
Y84646D02*
D03*
X54036Y68897D02*
D03*
Y76771D02*
D03*
X43307Y68898D02*
D03*
Y76772D02*
D03*
D16*
X40945Y112598D02*
D03*
X46513Y107031D02*
D03*
X29190Y118448D02*
D03*
X23622Y124016D02*
D03*
D17*
X80651Y145611D02*
D03*
X82878Y143384D02*
D03*
X85105Y141156D02*
D03*
X87332Y138929D02*
D03*
X89559Y136702D02*
D03*
X91786Y134475D02*
D03*
X94014Y132248D02*
D03*
X96241Y130021D02*
D03*
X72578Y106358D02*
D03*
X70350Y108585D02*
D03*
X68123Y110812D02*
D03*
X65896Y113039D02*
D03*
X63669Y115266D02*
D03*
X61442Y117493D02*
D03*
X59215Y119720D02*
D03*
X56988Y121948D02*
D03*
D18*
X96241D02*
D03*
X94014Y119720D02*
D03*
X91786Y117493D02*
D03*
X89559Y115266D02*
D03*
X87332Y113039D02*
D03*
X85105Y110812D02*
D03*
X82878Y108585D02*
D03*
X80651Y106358D02*
D03*
X56988Y130021D02*
D03*
X59215Y132248D02*
D03*
X61442Y134475D02*
D03*
X63669Y136702D02*
D03*
X65896Y138929D02*
D03*
X68123Y141156D02*
D03*
X70350Y143384D02*
D03*
X72578Y145611D02*
D03*
D19*
X47344Y135950D02*
D03*
X36209Y124815D02*
D03*
X29528Y131496D02*
D03*
X40663Y142632D02*
D03*
D03*
D20*
X26322Y141283D02*
D03*
X31890Y146850D02*
D03*
X56243Y147976D02*
D03*
X61811Y153543D02*
D03*
D21*
X84252Y62992D02*
D03*
X76378D02*
D03*
D22*
X111516Y65748D02*
D03*
Y62008D02*
D03*
Y58268D02*
D03*
X101083D02*
D03*
Y62008D02*
D03*
Y65748D02*
D03*
Y50000D02*
D03*
Y46260D02*
D03*
Y42520D02*
D03*
X111516D02*
D03*
Y46260D02*
D03*
Y50000D02*
D03*
D23*
X69134Y21654D02*
D03*
D24*
X86457D02*
D03*
D25*
X130000Y10000D02*
D03*
Y20000D02*
D03*
Y30000D02*
D03*
Y40000D02*
D03*
Y50000D02*
D03*
Y60000D02*
D03*
Y70000D02*
D03*
Y80000D02*
D03*
Y90000D02*
D03*
X25000D02*
D03*
Y80000D02*
D03*
Y70000D02*
D03*
Y60000D02*
D03*
Y50000D02*
D03*
Y40000D02*
D03*
Y30000D02*
D03*
Y20000D02*
D03*
Y10000D02*
D03*
X120079Y131890D02*
D03*
X110079D02*
D03*
X120079Y152362D02*
D03*
X110079D02*
D03*
X78740Y171260D02*
D03*
X68740D02*
D03*
D26*
X130000Y100000D02*
D03*
X25000D02*
D03*
D27*
X130079Y131890D02*
D03*
Y152362D02*
D03*
X88740Y171260D02*
D03*
D28*
X89370Y66142D02*
D03*
X77165Y98819D02*
D03*
X96457Y139631D02*
D03*
X55261Y111398D02*
D03*
X83071Y80028D02*
D03*
X57087Y53937D02*
D03*
X95426Y58025D02*
D03*
X67405Y153150D02*
D03*
X68504Y157480D02*
D03*
X94488Y142913D02*
D03*
X59055Y69291D02*
D03*
X90158Y82284D02*
D03*
X84646Y101969D02*
D03*
X89370Y154331D02*
D03*
X77165Y102756D02*
D03*
X81890Y133071D02*
D03*
X97244Y95276D02*
D03*
X89370Y106299D02*
D03*
X116142Y61811D02*
D03*
X117323Y82284D02*
D03*
X107874Y94488D02*
D03*
X114173Y85827D02*
D03*
X111024Y91339D02*
D03*
X24016Y114173D02*
D03*
X19685Y120079D02*
D03*
X59055Y141339D02*
D03*
X53150Y161417D02*
D03*
X51181Y116929D02*
D03*
X126772Y114961D02*
D03*
X96457Y62205D02*
D03*
X96063Y46457D02*
D03*
X91339Y51968D02*
D03*
X82333Y83908D02*
D03*
X62598Y96379D02*
D03*
X61811Y100046D02*
D03*
X57874Y100563D02*
D03*
X57188Y104331D02*
D03*
X53150Y104747D02*
D03*
X96063Y42520D02*
D03*
X84095Y40000D02*
D03*
X47835Y164370D02*
D03*
M02*
